<svg width="900" height="673" viewBox="0 0 900 673" fill="none" xmlns="http://www.w3.org/2000/svg">
<path d="M276.809 351.585C279.244 348.463 285.496 342.444 291.023 343.34C296.55 344.237 311.245 324.386 317.903 314.349C324.085 305.028 337.684 281.778 342.626 263.34C348.803 240.292 341.844 199.969 347.282 184.629C352.72 169.289 348.889 151.992 366.567 148.96C384.245 145.929 426.644 144.354 447.594 135.841C464.353 129.031 465.879 128.598 464.548 129.232L451.671 150.57C464.103 149.22 490.073 146.782 494.488 147.815C498.904 148.85 502.825 153.648 504.234 155.919C509.253 159.248 520.763 165.497 526.655 163.866C534.018 161.828 575.171 131.919 586.456 131.934C597.741 131.949 607.181 135.296 608.914 137.902C610.647 140.509 598.868 145.632 589.832 152.39C582.602 157.797 579.818 161.902 579.33 163.278C598.333 156.511 638.226 143.644 645.779 146.321C653.33 148.998 657.389 153.536 658.475 155.47L618.86 177.291C650.116 182.173 717.686 194.524 737.922 204.885C763.217 217.837 816.094 248.535 827.475 253.897C838.857 259.261 875.706 278.964 881.435 279.667C886.017 280.228 876.039 289.265 870.477 293.714L835.48 291.271C821.411 295.36 794.27 300.813 787.964 301.657C775.588 303.313 768.517 304.061 762.616 301.97C756.717 299.878 733.9 302.416 728.933 303.313C723.967 304.209 684.765 304.26 681.224 303.004C678.393 302 668.563 302.501 664.002 302.876C668.399 304.214 678.162 307.896 682.046 311.929C685.929 315.962 690.694 318.759 692.591 319.652C676.752 323.114 644.166 329.982 640.527 329.754C635.979 329.471 614.836 327.289 613.581 330.829C612.326 334.369 598.001 348.552 578.627 346.997C559.255 345.443 506.026 343.842 496.855 347.233C487.683 350.623 484.927 360.272 477.391 360.921C469.856 361.571 456.801 360.928 456.763 362.908C456.726 364.886 458.876 366.313 457.412 370.443C456.03 374.342 436.969 379.673 434.35 380.08C436.793 380.151 453.376 381.829 450.511 389.913C448.001 396.993 434.308 405.644 427.776 409.084C429.673 409.977 433.048 412.945 431.375 417.665C429.703 422.385 411.155 425.994 402.091 427.209C405.212 429.644 409.851 435.671 403.427 440.301C397.004 444.931 391.225 450.366 389.139 452.504L343.94 445.116C330.649 439.519 301.893 428.086 293.2 427.129C282.333 425.934 264.115 422.74 256.985 426.247C250.037 429.664 238.329 407.679 246.508 393.974C253.051 383.011 269.435 361.147 276.809 351.585Z" fill="url(#paint0_linear_428)"/>
<path d="M650.509 171.137C649.543 171.186 648.982 171 648.749 170.782C649.277 170.884 649.87 171.003 650.509 171.137C651.967 171.064 654.348 170.458 657.916 168.63C665.331 164.832 667.211 154.639 675.406 160.543C681.962 165.267 686.703 170.557 688.254 172.612C681.646 174.576 667.903 178.011 665.8 176.036C663.929 174.278 655.688 172.222 650.509 171.137Z" fill="url(#paint1_linear_428)"/>
<path d="M250.742 375.145C258.465 364.599 273.418 341.835 279.963 337.735C262.692 322.757 242.631 312.59 209.013 300.104C197.934 295.989 209.013 300.104 189.803 293.963C186.148 291.783 171.795 289.917 162.072 289.917C146.58 289.917 129.057 293.042 124.773 293.963C116.324 295.781 96.884 299.573 85.0036 303.111C87.426 300.649 93.5362 289.532 98.5975 264.761C104.925 233.797 102.349 212.959 100.326 194.31C98.708 179.391 110.109 158.593 116.012 150.06C109.614 156.868 94.8047 174.288 86.756 189.5C76.6951 208.514 93.2967 231.002 82.6678 259.114C72.0389 287.225 59.1622 308.562 55.1511 321.751C51.1399 334.94 47.3226 358.825 50.944 376.711C54.5655 394.599 54.9838 393.418 51.9061 409.595C49.4439 422.537 61.5795 428.521 67.9551 429.896L71.9442 407.401C77.324 409.086 88.8857 409.819 92.0946 399.268C96.1059 386.079 107.837 375.607 130.84 363.173C153.843 350.739 183.989 445.895 197.628 456.633C213.249 468.93 315.535 453.068 337.51 456.652C344.06 448.79 283.313 434.266 275.641 434.266C264.927 434.266 255.128 438.654 247.04 437.115C238.951 435.575 235.492 420.96 234.954 407.487C234.417 394.013 242.605 386.255 250.742 375.145Z" fill="url(#paint2_linear_428)"/>
<path d="M67.5603 354.752C67.5672 348.992 73.4534 343.929 73.4534 339.175C73.4534 336.774 71.616 332.125 72.493 330.123C74.2348 326.146 81.4701 324 85.9229 322.294C84.9678 323.495 83.0586 327.169 81.1805 330.123C79.1319 333.346 77.8671 337.982 78.1367 340.503C79.2644 347.107 87.8612 355.984 78.9633 361.743C76.4175 363.391 67.5536 360.512 67.5603 354.752Z" fill="#F4F4F4"/>
<path d="M217.618 471.726C183.424 472.878 177.52 454.277 178.961 445.312C172.78 458 166.119 484.512 187.362 492.857C208.878 501.31 272.848 477.81 302.143 465.002C288.216 466.764 251.813 470.573 217.618 471.726Z" fill="url(#paint3_linear_428)"/>
<path d="M475.915 124.683C471.413 126.704 464.549 138.949 461.679 144.819C464.79 144.2 471.976 142.917 475.826 142.731C479.677 142.547 492.706 121.811 498.739 111.467C497.798 112.639 495.291 115.41 492.796 117.108C489.678 119.231 481.542 122.158 475.915 124.683Z" fill="url(#paint4_linear_428)"/>
<path d="M784.689 310.984C790.994 311.235 824.913 303.344 841.084 299.366C833.431 303.321 809.422 314.008 793.909 318.368C778.397 322.728 768.508 315.35 765.502 311.116C767.662 311.53 778.384 310.731 784.689 310.984Z" fill="url(#paint5_linear_428)"/>
<path d="M516.553 388.391H534.442C540.773 388.391 545.292 390.113 547.996 393.555C550.763 396.998 552.146 401.885 552.146 408.216C552.146 413.995 550.701 418.698 547.812 422.324C544.984 425.951 540.558 427.765 534.534 427.765H523.561V463.081H516.553V388.391ZM532.505 422.509C537.116 422.509 540.374 421.464 542.279 419.374C544.246 417.222 545.23 413.503 545.23 408.216C545.23 404.344 544.861 401.393 544.124 399.364C543.386 397.274 542.126 395.799 540.343 394.938C538.56 394.078 535.978 393.647 532.597 393.647H523.561V422.509H532.505ZM567.213 388.391H573.945V415.409C577.94 411.106 582.274 408.954 586.946 408.954C589.589 408.954 591.618 409.938 593.032 411.905C594.446 413.872 595.153 416.669 595.153 420.296V463.081H588.329V421.771C588.329 419.066 587.899 417.13 587.038 415.962C586.239 414.794 584.979 414.21 583.258 414.21C581.782 414.21 580.215 414.671 578.555 415.593C576.957 416.515 575.42 417.745 573.945 419.282V463.081H567.213V388.391ZM625.683 463.911C620.397 463.911 616.708 462.282 614.618 459.024C612.528 455.704 611.483 450.633 611.483 443.809V429.056C611.483 422.232 612.528 417.191 614.618 413.933C616.708 410.614 620.397 408.954 625.683 408.954C631.032 408.954 634.751 410.614 636.841 413.933C638.931 417.191 639.976 422.232 639.976 429.056V443.809C639.976 450.633 638.931 455.704 636.841 459.024C634.751 462.282 631.032 463.911 625.683 463.911ZM625.683 458.839C627.897 458.839 629.526 458.255 630.571 457.087C631.677 455.919 632.384 454.352 632.691 452.385C632.999 450.356 633.152 447.621 633.152 444.178V428.687C633.152 425.244 632.999 422.54 632.691 420.572C632.384 418.544 631.677 416.946 630.571 415.778C629.526 414.61 627.897 414.026 625.683 414.026C623.47 414.026 621.841 414.61 620.796 415.778C619.751 416.946 619.075 418.544 618.768 420.572C618.46 422.54 618.307 425.244 618.307 428.687V444.178C618.307 447.621 618.46 450.356 618.768 452.385C619.075 454.352 619.751 455.919 620.796 457.087C621.841 458.255 623.47 458.839 625.683 458.839ZM670.075 463.911C666.632 463.911 663.866 463.235 661.776 461.882C659.686 460.53 658.149 458.348 657.165 455.335C656.182 452.323 655.69 448.235 655.69 443.072V429.609C655.69 424.384 656.182 420.296 657.165 417.345C658.21 414.333 659.778 412.181 661.868 410.891C664.019 409.6 666.786 408.954 670.167 408.954C673.855 408.954 676.683 409.753 678.65 411.352C680.679 412.888 682.062 415.224 682.799 418.359C683.599 421.495 683.998 425.705 683.998 430.992V435.787H662.421V445.1C662.421 450.202 663.005 453.768 664.173 455.796C665.341 457.825 667.308 458.839 670.075 458.839C672.411 458.839 674.193 458.102 675.423 456.626C676.714 455.151 677.359 452.477 677.359 448.604V444.916H683.906V447.866C683.906 453.03 682.83 456.995 680.679 459.761C678.527 462.528 674.992 463.911 670.075 463.911ZM677.359 431.914V427.488C677.359 424.292 677.175 421.771 676.806 419.927C676.498 418.083 675.822 416.638 674.777 415.593C673.732 414.548 672.165 414.026 670.075 414.026C668.169 414.026 666.663 414.456 665.556 415.317C664.45 416.116 663.651 417.56 663.159 419.65C662.667 421.679 662.421 424.568 662.421 428.318V431.914H677.359ZM700.46 409.784H707.192V415.317C708.974 413.349 710.941 411.813 713.093 410.706C715.306 409.538 717.611 408.954 720.009 408.954C722.652 408.954 724.681 409.938 726.094 411.905C727.508 413.872 728.215 416.669 728.215 420.296V463.081H721.484V421.771C721.484 419.066 721.054 417.13 720.193 415.962C719.394 414.794 718.134 414.21 716.413 414.21C714.937 414.21 713.4 414.671 711.802 415.593C710.204 416.454 708.667 417.653 707.192 419.189V463.081H700.46V409.784ZM746.305 393.279H753.036V402.407H746.305V393.279ZM746.305 409.784H753.036V463.081H746.305V409.784ZM780.708 435.234L768.721 409.784H775.36L784.489 429.332L793.249 409.784H800.072L787.624 435.971L800.257 463.081H793.802L783.843 442.149L774.53 463.081H768.076L780.708 435.234Z" fill="#BD2401"/>
<defs>
<linearGradient id="paint0_linear_428" x1="633.656" y1="142.023" x2="501.744" y2="514.155" gradientUnits="userSpaceOnUse">
<stop stop-color="#FFCD34"/>
<stop offset="0.40625" stop-color="#FF5800"/>
<stop offset="0.921875" stop-color="#BD2401"/>
</linearGradient>
<linearGradient id="paint1_linear_428" x1="677.699" y1="161.905" x2="659.699" y2="181.067" gradientUnits="userSpaceOnUse">
<stop stop-color="#FFCD34"/>
<stop offset="0.625" stop-color="#FF5800"/>
</linearGradient>
<linearGradient id="paint2_linear_428" x1="255.819" y1="199.619" x2="162.271" y2="463.523" gradientUnits="userSpaceOnUse">
<stop stop-color="#FFCD34"/>
<stop offset="0.666667" stop-color="#FF5800"/>
<stop offset="1" stop-color="#BD2401"/>
</linearGradient>
<linearGradient id="paint3_linear_428" x1="237.505" y1="444.831" x2="237.505" y2="494.649" gradientUnits="userSpaceOnUse">
<stop stop-color="#FF5800"/>
<stop offset="1" stop-color="#BD2401"/>
</linearGradient>
<linearGradient id="paint4_linear_428" x1="487.529" y1="107.493" x2="472.889" y2="148.793" gradientUnits="userSpaceOnUse">
<stop stop-color="#FFCD34"/>
<stop offset="1" stop-color="#FF5800"/>
</linearGradient>
<linearGradient id="paint5_linear_428" x1="829.882" y1="310.245" x2="780.896" y2="310.245" gradientUnits="userSpaceOnUse">
<stop stop-color="#FFCD34"/>
<stop offset="1" stop-color="#FF5800"/>
</linearGradient>
</defs>
</svg>
