<svg width="450" height="225" viewBox="0 0 450 225" fill="none" xmlns="http://www.w3.org/2000/svg">
<path d="M337.444 225H112.537L112.5 213.319C112.5 189.713 114.375 176.081 142.275 169.631C173.85 162.337 204.975 155.831 189.994 128.212C145.631 46.4063 177.356 0 224.981 0C271.687 0 304.219 44.6812 259.969 128.231C245.438 155.681 275.456 162.206 307.688 169.65C335.625 176.1 337.481 189.75 337.481 213.394L337.444 225ZM427.65 183.487C403.462 177.9 380.962 173.006 391.856 152.419C425.025 89.7562 400.65 56.25 365.606 56.25C341.888 56.25 323.456 71.5688 323.456 99.825C323.456 173.006 365.981 133.013 365.569 225H449.962L450 216.319C450 198.581 448.612 188.325 427.65 183.487ZM0.0375 225H84.4312C84.0375 133.013 126.544 173.025 126.544 99.825C126.544 71.5688 108.112 56.25 84.3937 56.25C49.35 56.25 24.975 89.7562 58.1625 152.419C69.0562 173.025 46.5562 177.9 22.3687 183.487C1.3875 188.325 0 198.581 0 216.319L0.0375 225Z" fill="url(#paint0_linear_47:44)"/>
<defs>
<linearGradient id="paint0_linear_47:44" x1="225" y1="0" x2="225" y2="225" gradientUnits="userSpaceOnUse">
<stop stop-color="#FFCD34"/>
<stop offset="1" stop-color="#FF5800"/>
</linearGradient>
</defs>
</svg>
