<svg width="3194" height="1762" viewBox="0 0 3194 1762" fill="none" xmlns="http://www.w3.org/2000/svg">
<g clip-path="url(#clip0_12175)">
<rect width="3194" height="1762" fill="#2D0901"/>
<path d="M2059.39 1087.06C2062.63 1082.89 2070.98 1074.86 2078.35 1076.06C2085.73 1077.25 2105.34 1050.76 2114.22 1037.37C2122.47 1024.93 2140.62 993.904 2147.21 969.3C2155.46 938.544 2146.17 884.736 2153.43 864.265C2160.68 843.795 2155.57 820.713 2179.16 816.668C2202.75 812.622 2259.33 810.522 2287.29 799.161C2309.65 790.073 2311.69 789.495 2309.91 790.342L2292.73 818.815C2309.32 817.015 2343.97 813.76 2349.86 815.14C2355.76 816.52 2360.99 822.924 2362.87 825.954C2369.57 830.396 2384.93 838.736 2392.79 836.559C2402.62 833.839 2457.53 793.926 2472.59 793.947C2487.65 793.967 2500.25 798.433 2502.56 801.911C2504.87 805.39 2489.15 812.226 2477.09 821.245C2467.45 828.46 2463.73 833.938 2463.08 835.775C2488.44 826.743 2541.67 809.573 2551.75 813.145C2561.83 816.718 2567.25 822.773 2568.69 825.355L2515.83 854.474C2557.54 860.987 2647.71 877.47 2674.71 891.296C2708.47 908.579 2779.03 949.544 2794.22 956.7C2809.4 963.857 2858.58 990.15 2866.22 991.087C2872.34 991.837 2859.02 1003.9 2851.6 1009.83L2804.9 1006.57C2786.12 1012.03 2749.91 1019.31 2741.49 1020.43C2724.98 1022.64 2715.54 1023.64 2707.67 1020.85C2699.79 1018.06 2669.35 1021.45 2662.72 1022.64C2656.09 1023.84 2603.78 1023.9 2599.05 1022.23C2595.27 1020.89 2582.16 1021.56 2576.07 1022.06C2581.94 1023.84 2594.97 1028.76 2600.15 1034.14C2605.33 1039.52 2611.69 1043.25 2614.22 1044.45C2593.09 1049.07 2549.6 1058.23 2544.75 1057.93C2538.68 1057.55 2510.46 1054.64 2508.79 1059.36C2507.11 1064.08 2488 1083.01 2462.14 1080.94C2436.29 1078.86 2365.26 1076.73 2353.02 1081.25C2340.78 1085.77 2337.11 1098.65 2327.05 1099.52C2316.99 1100.38 2299.57 1099.53 2299.52 1102.17C2299.47 1104.81 2302.34 1106.71 2300.39 1112.22C2298.44 1117.73 2270.02 1125.39 2269.23 1125.11C2268.45 1124.83 2295.37 1126.39 2291.18 1138.2C2287.83 1147.65 2269.56 1159.2 2260.84 1163.79C2263.37 1164.98 2267.88 1168.94 2265.64 1175.24C2263.41 1181.54 2238.66 1186.35 2226.57 1187.97C2230.73 1191.22 2236.92 1199.27 2228.35 1205.44C2219.78 1211.62 2212.07 1218.88 2209.28 1221.73L2148.97 1211.87C2131.23 1204.4 2092.86 1189.14 2081.26 1187.87C2066.76 1186.27 2042.45 1182.01 2032.93 1186.69C2023.66 1191.25 2008.04 1161.91 2018.95 1143.62C2027.68 1128.99 2049.55 1099.82 2059.39 1087.06Z" stroke="#BD2401" stroke-width="3"/>
<path d="M2555.72 845.787C2556.5 846.519 2560.03 846.97 2567.95 842.915C2577.84 837.847 2580.35 824.245 2591.29 832.124C2600.04 838.427 2606.36 845.487 2608.43 848.229C2599.62 850.85 2581.28 855.433 2578.47 852.798C2575.67 850.162 2562.13 847.026 2555.72 845.787Z" stroke="#BD2401" stroke-width="3"/>
<path d="M2025.78 1111.36C2036.09 1097.29 2054.86 1074.05 2063.6 1068.58C2040.55 1048.59 2013.78 1035.02 1968.92 1018.36C1954.13 1012.87 1968.92 1018.36 1943.28 1010.17C1938.4 1007.26 1919.25 1004.77 1906.28 1004.77C1885.6 1004.77 1862.22 1008.94 1856.5 1010.17C1845.23 1012.59 1819.29 1017.65 1803.43 1022.37C1806.66 1019.09 1814.82 1004.25 1821.57 971.196C1830.02 929.876 1826.58 902.07 1823.88 877.184C1821.72 857.275 1836.93 829.522 1844.81 818.135C1836.27 827.22 1816.51 850.466 1805.77 870.765C1792.35 896.138 1814.5 926.148 1800.32 963.66C1786.13 1001.17 1768.95 1029.65 1763.6 1047.25C1758.24 1064.85 1753.15 1096.72 1757.98 1120.59C1762.81 1144.46 1763.37 1142.88 1759.27 1164.47C1755.98 1181.74 1772.17 1189.72 1780.68 1191.56L1786.01 1161.54C1793.18 1163.79 1808.61 1164.77 1812.89 1150.69C1818.25 1133.09 1833.9 1119.11 1864.6 1102.52C1895.29 1085.93 1935.52 1212.91 1953.72 1227.24C1974.57 1243.65 2111.06 1222.48 2140.39 1227.26C2149.13 1216.77 2068.06 1197.39 2057.83 1197.39C2043.53 1197.39 2030.45 1203.25 2019.66 1201.19C2008.87 1199.14 2004.25 1179.63 2003.53 1161.66C2002.82 1143.68 2014.93 1126.19 2025.78 1111.36Z" stroke="#BD2401" stroke-width="3"/>
<path d="M1780.16 1091.28C1780.16 1083.6 1788.02 1076.84 1788.02 1070.5C1788.02 1067.29 1785.57 1061.09 1786.74 1058.42C1789.06 1053.11 1798.72 1050.25 1804.66 1047.97C1803.38 1049.57 1800.84 1054.48 1798.33 1058.42C1795.6 1062.72 1793.91 1068.91 1794.27 1072.27C1795.77 1081.08 1807.25 1092.93 1795.37 1100.61C1791.97 1102.81 1780.15 1098.97 1780.16 1091.28Z" stroke="#BD2401" stroke-width="3"/>
<path d="M1928.81 1212.13C1926.89 1224.09 1934.77 1248.92 1980.4 1247.38C2026.03 1245.84 2074.61 1240.76 2093.19 1238.41C2054.1 1255.5 1968.73 1286.86 1940.02 1275.58C1911.31 1264.3 1920.8 1228.15 1929.13 1211.49" stroke="#BD2401" stroke-width="3"/>
<path d="M2325.08 784.272C2319.07 786.967 2309.91 803.308 2306.08 811.142C2310.23 810.316 2319.82 808.602 2324.96 808.356C2330.1 808.11 2347.49 780.439 2355.54 766.634C2354.28 768.199 2350.94 771.896 2347.61 774.163C2343.45 776.996 2332.59 780.902 2325.08 784.272Z" stroke="#BD2401" stroke-width="3"/>
<path d="M2737.12 1032.88C2745.54 1033.21 2790.8 1022.68 2812.38 1017.38C2802.16 1022.65 2770.13 1036.91 2749.42 1042.73C2728.72 1048.55 2715.53 1038.71 2711.52 1033.06C2714.4 1033.61 2728.71 1032.54 2737.12 1032.88Z" stroke="#BD2401" stroke-width="3"/>
<path d="M2377.77 1125.96H2396.01C2402.61 1125.96 2407.25 1127.72 2409.93 1131.24C2412.69 1134.76 2414.06 1139.69 2414.06 1146.03C2414.06 1151.98 2412.65 1156.91 2409.84 1160.81C2407.09 1164.65 2402.51 1166.57 2396.11 1166.57H2382.96V1203.72H2377.77V1125.96ZM2394.96 1162.54C2399.76 1162.54 2403.25 1161.29 2405.42 1158.8C2407.6 1156.24 2408.69 1151.98 2408.69 1146.03C2408.69 1141.87 2408.24 1138.64 2407.34 1136.33C2406.45 1134.03 2405.01 1132.4 2403.02 1131.44C2401.1 1130.48 2398.45 1130 2395.05 1130H2382.96V1162.54H2394.96ZM2430.32 1125.96H2435.41V1154.09C2437.26 1151.98 2439.31 1150.35 2441.55 1149.2C2443.86 1147.98 2446.22 1147.37 2448.66 1147.37C2451.28 1147.37 2453.39 1148.36 2454.99 1150.35C2456.59 1152.27 2457.39 1155.31 2457.39 1159.47V1203.72H2452.21V1160.04C2452.21 1156.78 2451.73 1154.51 2450.77 1153.23C2449.81 1151.95 2448.37 1151.31 2446.45 1151.31C2444.66 1151.31 2442.8 1151.85 2440.88 1152.94C2438.96 1154.03 2437.14 1155.53 2435.41 1157.45V1203.72H2430.32V1125.96ZM2488.46 1204.59C2483.14 1204.59 2479.5 1202.92 2477.51 1199.6C2475.53 1196.2 2474.54 1190.83 2474.54 1183.47V1168.49C2474.54 1161.2 2475.53 1155.85 2477.51 1152.46C2479.5 1149.07 2483.14 1147.37 2488.46 1147.37C2493.77 1147.37 2497.42 1149.07 2499.4 1152.46C2501.45 1155.79 2502.47 1161.13 2502.47 1168.49V1183.47C2502.47 1190.83 2501.45 1196.2 2499.4 1199.6C2497.42 1202.92 2493.77 1204.59 2488.46 1204.59ZM2488.46 1200.75C2491.02 1200.75 2492.94 1200.11 2494.22 1198.83C2495.56 1197.48 2496.42 1195.63 2496.81 1193.26C2497.19 1190.89 2497.38 1187.69 2497.38 1183.66V1168.3C2497.38 1164.27 2497.19 1161.07 2496.81 1158.7C2496.42 1156.33 2495.56 1154.51 2494.22 1153.23C2492.94 1151.88 2491.02 1151.21 2488.46 1151.21C2485.9 1151.21 2483.98 1151.88 2482.7 1153.23C2481.42 1154.51 2480.58 1156.33 2480.2 1158.7C2479.82 1161 2479.62 1164.2 2479.62 1168.3V1183.66C2479.62 1187.76 2479.82 1190.99 2480.2 1193.36C2480.58 1195.66 2481.42 1197.48 2482.7 1198.83C2483.98 1200.11 2485.9 1200.75 2488.46 1200.75ZM2533.08 1204.59C2529.94 1204.59 2527.35 1203.98 2525.3 1202.76C2523.25 1201.55 2521.69 1199.37 2520.6 1196.24C2519.51 1193.1 2518.97 1188.75 2518.97 1183.18V1168.4C2518.97 1162.83 2519.51 1158.51 2520.6 1155.44C2521.75 1152.36 2523.35 1150.25 2525.4 1149.1C2527.45 1147.95 2530.04 1147.37 2533.17 1147.37C2536.63 1147.37 2539.35 1148.11 2541.33 1149.58C2543.32 1151.05 2544.73 1153.39 2545.56 1156.59C2546.39 1159.72 2546.81 1164.01 2546.81 1169.45V1174.73H2524.05V1183.56C2524.05 1187.98 2524.34 1191.44 2524.92 1193.93C2525.56 1196.43 2526.52 1198.19 2527.8 1199.21C2529.08 1200.24 2530.84 1200.75 2533.08 1200.75C2535.7 1200.75 2537.81 1200.01 2539.41 1198.54C2541.01 1197 2541.81 1193.87 2541.81 1189.13V1185H2546.81V1188.65C2546.81 1193.77 2545.75 1197.71 2543.64 1200.46C2541.59 1203.21 2538.07 1204.59 2533.08 1204.59ZM2541.81 1171.66V1167.34C2541.81 1163.56 2541.62 1160.56 2541.24 1158.32C2540.85 1156.08 2540.02 1154.35 2538.74 1153.13C2537.53 1151.85 2535.67 1151.21 2533.17 1151.21C2531 1151.21 2529.24 1151.66 2527.89 1152.56C2526.61 1153.45 2525.65 1155.08 2525.01 1157.45C2524.37 1159.82 2524.05 1163.15 2524.05 1167.44V1171.66H2541.81ZM2564.08 1148.24H2569.17V1154.19C2570.96 1152.08 2572.97 1150.41 2575.21 1149.2C2577.45 1147.98 2579.82 1147.37 2582.32 1147.37C2584.94 1147.37 2587.05 1148.36 2588.65 1150.35C2590.25 1152.27 2591.05 1155.31 2591.05 1159.47V1203.72H2585.97V1160.04C2585.97 1156.84 2585.45 1154.6 2584.43 1153.32C2583.47 1151.98 2582.03 1151.31 2580.11 1151.31C2578.32 1151.31 2576.46 1151.85 2574.54 1152.94C2572.69 1154.03 2570.89 1155.53 2569.17 1157.45V1203.72H2564.08V1148.24ZM2610.03 1132.11H2615.21V1140.94H2610.03V1132.11ZM2610.03 1148.24H2615.21V1203.72H2610.03V1148.24ZM2645.11 1174.83L2632.44 1148.24H2637.62L2647.99 1170.22L2658.26 1148.24H2663.54L2650.39 1175.31L2663.73 1203.72H2658.93L2647.61 1180.11L2636.57 1203.72H2631.57L2645.11 1174.83Z" fill="#BD2401"/>
<path d="M673.386 1106.06C676.635 1101.89 684.977 1093.86 692.352 1095.06C699.727 1096.25 719.339 1069.76 728.222 1056.37C736.472 1043.93 754.619 1012.9 761.214 988.3C769.457 957.544 760.171 903.736 767.427 883.266C774.683 862.795 769.572 839.713 793.162 835.668C816.752 831.622 873.331 829.522 901.287 818.161C923.652 809.073 925.688 808.495 923.911 809.342L906.728 837.815C923.319 836.015 957.973 832.761 963.865 834.14C969.757 835.52 974.99 841.924 976.87 844.954C983.568 849.396 998.927 857.736 1006.79 855.559C1016.62 852.839 1071.53 812.926 1086.59 812.947C1101.65 812.968 1114.25 817.433 1116.56 820.911C1118.87 824.39 1103.15 831.226 1091.09 840.245C1081.45 847.46 1077.73 852.938 1077.08 854.775C1102.44 845.743 1155.67 828.573 1165.75 832.145C1175.83 835.718 1181.25 841.774 1182.69 844.355L1129.83 873.474C1171.54 879.987 1261.71 896.47 1288.71 910.296C1322.47 927.579 1393.03 968.544 1408.22 975.7C1423.4 982.857 1472.58 1009.15 1480.22 1010.09C1486.34 1010.84 1473.02 1022.9 1465.6 1028.83L1418.9 1025.57C1400.12 1031.03 1363.91 1038.31 1355.49 1039.43C1338.98 1041.64 1329.54 1042.64 1321.67 1039.85C1313.79 1037.06 1283.35 1040.45 1276.72 1041.64C1270.09 1042.84 1217.78 1042.9 1213.05 1041.23C1209.27 1039.89 1196.16 1040.56 1190.07 1041.06C1195.94 1042.84 1208.97 1047.76 1214.15 1053.14C1219.33 1058.52 1225.69 1062.25 1228.22 1063.45C1207.09 1068.07 1163.6 1077.23 1158.75 1076.93C1152.68 1076.55 1124.46 1073.64 1122.79 1078.36C1121.11 1083.08 1102 1102.01 1076.14 1099.94C1050.29 1097.86 979.262 1095.73 967.023 1100.25C954.784 1104.77 951.106 1117.65 941.05 1118.52C930.994 1119.38 913.573 1118.53 913.523 1121.17C913.473 1123.81 916.343 1125.71 914.39 1131.22C912.545 1136.43 887.108 1143.54 883.614 1144.08C886.874 1144.18 909.004 1146.42 905.18 1157.2C901.831 1166.65 883.558 1178.2 874.841 1182.79C877.373 1183.98 881.877 1187.94 879.644 1194.24C877.412 1200.54 852.662 1205.35 840.566 1206.97C844.732 1210.22 850.92 1218.27 842.349 1224.44C833.778 1230.62 826.067 1237.88 823.283 1240.73L762.967 1230.87C745.231 1223.4 706.858 1208.14 695.257 1206.87C680.757 1205.27 656.446 1201.01 646.931 1205.69C637.659 1210.25 622.036 1180.91 632.95 1162.63C641.681 1147.99 663.545 1118.82 673.386 1106.06Z" fill="url(#paint0_linear_12175)"/>
<path d="M1172.07 865.261C1170.78 865.326 1170.03 865.079 1169.72 864.787C1170.42 864.923 1171.21 865.082 1172.07 865.261C1174.01 865.163 1177.19 864.354 1181.95 861.915C1191.85 856.847 1194.35 843.245 1205.29 851.124C1214.04 857.427 1220.36 864.487 1222.43 867.229C1213.62 869.85 1195.28 874.433 1192.47 871.798C1189.97 869.452 1178.98 866.709 1172.07 865.261Z" fill="url(#paint1_linear_12175)"/>
<path d="M638.6 1137.5C648.906 1123.42 668.861 1093.05 677.595 1087.58C654.547 1067.59 627.777 1054.02 582.916 1037.36C568.131 1031.87 582.916 1037.36 557.281 1029.17C552.404 1026.26 533.25 1023.77 520.275 1023.77C499.602 1023.77 476.22 1027.94 470.503 1029.17C459.227 1031.59 433.286 1036.65 417.432 1041.37C420.665 1038.09 428.818 1023.25 435.573 990.196C444.016 948.876 440.579 921.07 437.879 896.184C435.719 876.275 450.934 848.522 458.811 837.135C450.273 846.22 430.511 869.466 419.771 889.765C406.345 915.139 428.499 945.148 414.315 982.661C400.132 1020.17 382.949 1048.65 377.596 1066.25C372.243 1083.85 367.149 1115.72 371.982 1139.59C376.814 1163.46 377.373 1161.88 373.266 1183.47C369.98 1200.74 386.174 1208.72 394.682 1210.56L400.005 1180.54C407.184 1182.79 422.613 1183.77 426.895 1169.69C432.247 1152.09 447.901 1138.11 478.598 1121.52C509.295 1104.93 549.522 1231.91 567.723 1246.24C588.568 1262.65 725.063 1241.48 754.387 1246.26C763.127 1235.77 682.064 1216.39 671.827 1216.39C657.529 1216.39 644.453 1222.25 633.66 1220.19C622.866 1218.14 618.249 1198.63 617.532 1180.66C616.816 1162.68 627.742 1152.32 638.6 1137.5Z" fill="url(#paint2_linear_12175)"/>
<path d="M394.156 1110.28C394.165 1102.6 402.02 1095.84 402.02 1089.5C402.02 1086.29 399.568 1080.09 400.738 1077.42C403.062 1072.11 412.717 1069.25 418.659 1066.97C417.385 1068.57 414.837 1073.48 412.331 1077.42C409.597 1081.72 407.909 1087.91 408.269 1091.27C409.774 1100.08 421.246 1111.93 409.372 1119.61C405.975 1121.81 394.147 1117.97 394.156 1110.28Z" fill="#280800"/>
<path d="M594.399 1266.38C548.769 1267.92 540.89 1243.09 542.813 1231.13C534.564 1248.06 525.676 1283.44 554.024 1294.58C582.735 1305.86 668.1 1274.5 707.193 1257.41C688.607 1259.76 640.029 1264.84 594.399 1266.38Z" fill="url(#paint3_linear_12175)"/>
<path d="M939.08 803.272C933.073 805.968 923.913 822.308 920.083 830.142C924.235 829.316 933.823 827.602 938.962 827.356C944.101 827.11 961.487 799.439 969.538 785.634C968.282 787.2 964.936 790.896 961.607 793.163C957.446 795.996 946.589 799.902 939.08 803.272Z" fill="url(#paint4_linear_12175)"/>
<path d="M1351.12 1051.88C1359.54 1052.22 1404.8 1041.68 1426.38 1036.38C1416.16 1041.65 1384.13 1055.91 1363.43 1061.73C1342.72 1067.55 1329.53 1057.71 1325.52 1052.06C1328.4 1052.61 1342.71 1051.54 1351.12 1051.88Z" fill="url(#paint5_linear_12175)"/>
<path d="M991.39 1144.96H1010.01C1016.61 1144.96 1021.31 1146.76 1024.13 1150.34C1027.01 1153.92 1028.45 1159.01 1028.45 1165.6C1028.45 1171.62 1026.94 1176.52 1023.93 1180.29C1020.99 1184.07 1016.38 1185.96 1010.11 1185.96H998.686V1222.72H991.39V1144.96ZM1008 1180.48C1012.8 1180.48 1016.19 1179.4 1018.17 1177.22C1020.22 1174.98 1021.25 1171.11 1021.25 1165.6C1021.25 1161.57 1020.86 1158.5 1020.09 1156.39C1019.33 1154.21 1018.01 1152.68 1016.16 1151.78C1014.3 1150.88 1011.61 1150.44 1008.09 1150.44H998.686V1180.48H1008ZM1044.13 1144.96H1051.14V1173.09C1055.3 1168.61 1059.81 1166.37 1064.68 1166.37C1067.43 1166.37 1069.54 1167.4 1071.01 1169.44C1072.48 1171.49 1073.22 1174.4 1073.22 1178.18V1222.72H1066.12V1179.72C1066.12 1176.9 1065.67 1174.88 1064.77 1173.67C1063.94 1172.45 1062.63 1171.84 1060.84 1171.84C1059.3 1171.84 1057.67 1172.32 1055.94 1173.28C1054.28 1174.24 1052.68 1175.52 1051.14 1177.12V1222.72H1044.13V1144.96ZM1105.01 1223.59C1099.5 1223.59 1095.66 1221.89 1093.49 1218.5C1091.31 1215.04 1090.22 1209.76 1090.22 1202.66V1187.3C1090.22 1180.2 1091.31 1174.95 1093.49 1171.56C1095.66 1168.1 1099.5 1166.37 1105.01 1166.37C1110.57 1166.37 1114.45 1168.1 1116.62 1171.56C1118.8 1174.95 1119.89 1180.2 1119.89 1187.3V1202.66C1119.89 1209.76 1118.8 1215.04 1116.62 1218.5C1114.45 1221.89 1110.57 1223.59 1105.01 1223.59ZM1105.01 1218.31C1107.31 1218.31 1109.01 1217.7 1110.09 1216.48C1111.25 1215.27 1111.98 1213.64 1112.3 1211.59C1112.62 1209.48 1112.78 1206.63 1112.78 1203.04V1186.92C1112.78 1183.33 1112.62 1180.52 1112.3 1178.47C1111.98 1176.36 1111.25 1174.69 1110.09 1173.48C1109.01 1172.26 1107.31 1171.65 1105.01 1171.65C1102.7 1171.65 1101.01 1172.26 1099.92 1173.48C1098.83 1174.69 1098.13 1176.36 1097.81 1178.47C1097.49 1180.52 1097.33 1183.33 1097.33 1186.92V1203.04C1097.33 1206.63 1097.49 1209.48 1097.81 1211.59C1098.13 1213.64 1098.83 1215.27 1099.92 1216.48C1101.01 1217.7 1102.7 1218.31 1105.01 1218.31ZM1151.22 1223.59C1147.64 1223.59 1144.76 1222.88 1142.58 1221.48C1140.41 1220.07 1138.81 1217.8 1137.78 1214.66C1136.76 1211.52 1136.25 1207.27 1136.25 1201.89V1187.88C1136.25 1182.44 1136.76 1178.18 1137.78 1175.11C1138.87 1171.97 1140.5 1169.73 1142.68 1168.39C1144.92 1167.04 1147.8 1166.37 1151.32 1166.37C1155.16 1166.37 1158.1 1167.2 1160.15 1168.87C1162.26 1170.47 1163.7 1172.9 1164.47 1176.16C1165.3 1179.43 1165.72 1183.81 1165.72 1189.32V1194.31H1143.25V1204C1143.25 1209.32 1143.86 1213.03 1145.08 1215.14C1146.29 1217.25 1148.34 1218.31 1151.22 1218.31C1153.65 1218.31 1155.51 1217.54 1156.79 1216C1158.13 1214.47 1158.81 1211.68 1158.81 1207.65V1203.81H1165.62V1206.88C1165.62 1212.26 1164.5 1216.39 1162.26 1219.27C1160.02 1222.15 1156.34 1223.59 1151.22 1223.59ZM1158.81 1190.28V1185.67C1158.81 1182.34 1158.61 1179.72 1158.23 1177.8C1157.91 1175.88 1157.21 1174.37 1156.12 1173.28C1155.03 1172.2 1153.4 1171.65 1151.22 1171.65C1149.24 1171.65 1147.67 1172.1 1146.52 1173C1145.37 1173.83 1144.53 1175.33 1144.02 1177.51C1143.51 1179.62 1143.25 1182.63 1143.25 1186.53V1190.28H1158.81ZM1182.86 1167.24H1189.87V1173C1191.72 1170.95 1193.77 1169.35 1196.01 1168.2C1198.31 1166.98 1200.71 1166.37 1203.21 1166.37C1205.96 1166.37 1208.07 1167.4 1209.55 1169.44C1211.02 1171.49 1211.75 1174.4 1211.75 1178.18V1222.72H1204.75V1179.72C1204.75 1176.9 1204.3 1174.88 1203.4 1173.67C1202.57 1172.45 1201.26 1171.84 1199.47 1171.84C1197.93 1171.84 1196.33 1172.32 1194.67 1173.28C1193 1174.18 1191.4 1175.43 1189.87 1177.03V1222.72H1182.86V1167.24ZM1230.59 1150.05H1237.59V1159.56H1230.59V1150.05ZM1230.59 1167.24H1237.59V1222.72H1230.59V1167.24ZM1266.4 1193.73L1253.92 1167.24H1260.84L1270.34 1187.59L1279.46 1167.24H1286.56L1273.6 1194.5L1286.76 1222.72H1280.04L1269.67 1200.93L1259.97 1222.72H1253.25L1266.4 1193.73Z" fill="#BD2401"/>
<path d="M123 1759C79.3333 1759 48.1667 1747.83 29.5 1725.5C10.8333 1702.83 1.5 1669.5 1.5 1625.5V1475C1.5 1431 10.8333 1398 29.5 1376C48.1667 1353.67 79.3333 1342.5 123 1342.5C167 1342.5 198.333 1353.67 217 1376C236 1398.33 245.5 1431.33 245.5 1475V1625.5C245.5 1669.5 236 1702.83 217 1725.5C198.333 1747.83 167 1759 123 1759ZM123 1695.5C135.667 1695.5 144 1691.33 148 1683C152 1674.33 154 1662.67 154 1648V1453C154 1438 152 1426.33 148 1418C144 1409.67 135.667 1405.5 123 1405.5C111 1405.5 103 1409.83 99 1418.5C95 1426.83 93 1438.33 93 1453V1648C93 1662.67 94.8333 1674.33 98.5 1683C102.167 1691.33 110.333 1695.5 123 1695.5ZM456.969 1759C426.635 1759 402.635 1754.17 384.969 1744.5C367.302 1734.5 354.802 1720 347.469 1701C340.469 1681.67 336.969 1657.17 336.969 1627.5V1348H425.469V1641C425.469 1657.33 427.469 1670.33 431.469 1680C435.802 1689.67 444.302 1694.5 456.969 1694.5C469.635 1694.5 477.969 1689.67 481.969 1680C485.969 1670.33 487.969 1657.33 487.969 1641V1348H576.969V1627.5C576.969 1657.17 573.302 1681.67 565.969 1701C558.635 1720 546.135 1734.5 528.469 1744.5C511.135 1754.17 487.302 1759 456.969 1759ZM673.914 1348H785.414C829.747 1348 863.247 1355.83 885.914 1371.5C908.581 1387.17 919.914 1415 919.914 1455C919.914 1482 916.414 1503.5 909.414 1519.5C902.414 1535.5 889.414 1548 870.414 1557L925.914 1753H833.414L788.914 1571.5H763.414V1753H673.914V1348ZM788.414 1520C806.414 1520 818.914 1515.33 825.914 1506C833.247 1496.33 836.914 1482 836.914 1463C836.914 1444.67 833.581 1431 826.914 1422C820.247 1412.67 808.747 1408 792.414 1408H763.414V1520H788.414ZM1181.65 1348H1271.15V1692.5H1364.15V1753H1181.65V1348ZM1552.98 1759C1509.31 1759 1478.15 1747.83 1459.48 1725.5C1440.81 1702.83 1431.48 1669.5 1431.48 1625.5V1475C1431.48 1431 1440.81 1398 1459.48 1376C1478.15 1353.67 1509.31 1342.5 1552.98 1342.5C1596.98 1342.5 1628.31 1353.67 1646.98 1376C1665.98 1398.33 1675.48 1431.33 1675.48 1475V1625.5C1675.48 1669.5 1665.98 1702.83 1646.98 1725.5C1628.31 1747.83 1596.98 1759 1552.98 1759ZM1552.98 1695.5C1565.65 1695.5 1573.98 1691.33 1577.98 1683C1581.98 1674.33 1583.98 1662.67 1583.98 1648V1453C1583.98 1438 1581.98 1426.33 1577.98 1418C1573.98 1409.67 1565.65 1405.5 1552.98 1405.5C1540.98 1405.5 1532.98 1409.83 1528.98 1418.5C1524.98 1426.83 1522.98 1438.33 1522.98 1453V1648C1522.98 1662.67 1524.81 1674.33 1528.48 1683C1532.15 1691.33 1540.31 1695.5 1552.98 1695.5ZM1875.45 1759C1835.45 1759 1806.95 1746.83 1789.95 1722.5C1772.95 1698.17 1764.45 1663.67 1764.45 1619V1483C1764.45 1437.33 1773.62 1402.5 1791.95 1378.5C1810.62 1354.5 1841.95 1342.5 1885.95 1342.5C1928.28 1342.5 1958.62 1352.83 1976.95 1373.5C1995.28 1394.17 2004.45 1423.33 2004.45 1461V1487H1916.95V1454C1916.95 1438 1915.12 1426 1911.45 1418C1907.78 1409.67 1899.62 1405.5 1886.95 1405.5C1873.95 1405.5 1865.45 1410 1861.45 1419C1857.78 1428 1855.95 1440.5 1855.95 1456.5V1644C1855.95 1660 1858.28 1672.67 1862.95 1682C1867.95 1691 1876.78 1695.5 1889.45 1695.5C1912.78 1695.5 1924.45 1678 1924.45 1643V1595.5H1887.95V1543H2004.95V1753H1945.95L1940.95 1719.5C1928.28 1745.83 1906.45 1759 1875.45 1759ZM2216.96 1759C2173.3 1759 2142.13 1747.83 2123.46 1725.5C2104.8 1702.83 2095.46 1669.5 2095.46 1625.5V1475C2095.46 1431 2104.8 1398 2123.46 1376C2142.13 1353.67 2173.3 1342.5 2216.96 1342.5C2260.96 1342.5 2292.3 1353.67 2310.96 1376C2329.96 1398.33 2339.46 1431.33 2339.46 1475V1625.5C2339.46 1669.5 2329.96 1702.83 2310.96 1725.5C2292.3 1747.83 2260.96 1759 2216.96 1759ZM2216.96 1695.5C2229.63 1695.5 2237.96 1691.33 2241.96 1683C2245.96 1674.33 2247.96 1662.67 2247.96 1648V1453C2247.96 1438 2245.96 1426.33 2241.96 1418C2237.96 1409.67 2229.63 1405.5 2216.96 1405.5C2204.96 1405.5 2196.96 1409.83 2192.96 1418.5C2188.96 1426.83 2186.96 1438.33 2186.96 1453V1648C2186.96 1662.67 2188.8 1674.33 2192.46 1683C2196.13 1691.33 2204.3 1695.5 2216.96 1695.5Z" fill="#E14E00"/>
<rect x="1" y="93" width="171" height="153" fill="#BD2401"/>
<rect x="242" y="93" width="171" height="153" fill="#FF5800"/>
<rect x="726" y="93" width="171" height="153" fill="#F4F4F4"/>
<rect x="483" y="93" width="171" height="153" fill="#FFCD34"/>
<path d="M780.554 172.78H779.78V171.34H780.77L781.022 169.594H779.816V168.136H781.22L781.904 163.42H783.83L783.146 168.136H784.766L785.45 163.42H787.358L786.674 168.136H787.412V169.594H786.476L786.206 171.34H787.358V172.78H786.008L785.252 178H783.326L784.082 172.78H782.48L781.742 178H779.816L780.554 172.78ZM784.298 171.34L784.55 169.594H782.948L782.678 171.34H784.298ZM790.532 163.42H796.166V164.878H792.566V169.738H795.356V171.178H792.566V178H790.532V163.42ZM802.82 174.094H798.59V172.078L802.388 163.42H804.656V172.384H806.294V174.094H804.656V178H802.82V174.094ZM802.82 172.384V165.76L800.444 172.384H802.82ZM809.145 163.42H814.779V164.878H811.179V169.738H813.969V171.178H811.179V178H809.145V163.42ZM821.432 174.094H817.202V172.078L821 163.42H823.268V172.384H824.906V174.094H823.268V178H821.432V174.094ZM821.432 172.384V165.76L819.056 172.384H821.432ZM827.757 163.42H833.391V164.878H829.791V169.738H832.581V171.178H829.791V178H827.757V163.42ZM840.044 174.094H835.814V172.078L839.612 163.42H841.88V172.384H843.518V174.094H841.88V178H840.044V174.094ZM840.044 172.384V165.76L837.668 172.384H840.044Z" fill="#2D0901"/>
<path d="M535.604 172.78H534.83V171.34H535.82L536.072 169.594H534.866V168.136H536.27L536.954 163.42H538.88L538.196 168.136H539.816L540.5 163.42H542.408L541.724 168.136H542.462V169.594H541.526L541.256 171.34H542.408V172.78H541.058L540.302 178H538.376L539.132 172.78H537.53L536.792 178H534.866L535.604 172.78ZM539.348 171.34L539.6 169.594H537.998L537.728 171.34H539.348ZM545.582 163.42H551.216V164.878H547.616V169.738H550.406V171.178H547.616V178H545.582V163.42ZM554.053 163.42H559.687V164.878H556.087V169.738H558.877V171.178H556.087V178H554.053V163.42ZM566.179 178.162C564.739 178.162 563.725 177.736 563.137 176.884C562.549 176.02 562.255 174.832 562.255 173.32V168.172C562.255 166.576 562.543 165.364 563.119 164.536C563.695 163.708 564.715 163.294 566.179 163.294C567.487 163.294 568.423 163.648 568.987 164.356C569.563 165.064 569.851 166.108 569.851 167.488V168.64H567.925V167.614C567.925 166.942 567.895 166.426 567.835 166.066C567.775 165.706 567.619 165.418 567.367 165.202C567.127 164.986 566.737 164.878 566.197 164.878C565.645 164.878 565.231 164.998 564.955 165.238C564.691 165.466 564.517 165.79 564.433 166.21C564.349 166.618 564.307 167.17 564.307 167.866V173.644C564.307 174.388 564.367 174.97 564.487 175.39C564.607 175.81 564.799 176.11 565.063 176.29C565.339 176.47 565.717 176.56 566.197 176.56C566.713 176.56 567.097 176.446 567.349 176.218C567.601 175.99 567.757 175.678 567.817 175.282C567.889 174.886 567.925 174.346 567.925 173.662V172.582H569.851V173.662C569.851 175.114 569.575 176.23 569.023 177.01C568.483 177.778 567.535 178.162 566.179 178.162ZM573.228 163.42H576.396C577.968 163.42 579.078 163.78 579.726 164.5C580.386 165.22 580.716 166.342 580.716 167.866V173.23C580.716 174.838 580.392 176.038 579.744 176.83C579.108 177.61 578.046 178 576.558 178H573.228V163.42ZM576.414 176.542C577.122 176.542 577.632 176.404 577.944 176.128C578.268 175.852 578.466 175.48 578.538 175.012C578.622 174.532 578.664 173.812 578.664 172.852V168.118C578.664 167.29 578.61 166.66 578.502 166.228C578.406 165.784 578.196 165.46 577.872 165.256C577.548 165.04 577.044 164.932 576.36 164.932H575.262V176.542H576.414ZM587.31 178.162C586.146 178.162 585.258 177.838 584.646 177.19C584.046 176.53 583.746 175.606 583.746 174.418V173.932H585.654V174.256C585.678 175 585.804 175.57 586.032 175.966C586.272 176.362 586.698 176.56 587.31 176.56C587.958 176.56 588.396 176.338 588.624 175.894C588.864 175.438 588.984 174.766 588.984 173.878C588.984 173.062 588.834 172.426 588.534 171.97C588.234 171.502 587.748 171.244 587.076 171.196C587.028 171.184 586.938 171.178 586.806 171.178V169.252H587.058C587.742 169.228 588.234 169.048 588.534 168.712C588.834 168.376 588.984 167.818 588.984 167.038C588.984 166.318 588.864 165.778 588.624 165.418C588.384 165.046 587.952 164.86 587.328 164.86C586.704 164.86 586.272 165.058 586.032 165.454C585.804 165.85 585.678 166.432 585.654 167.2V167.506H583.746V167.02C583.746 165.832 584.046 164.914 584.646 164.266C585.258 163.618 586.152 163.294 587.328 163.294C588.504 163.294 589.392 163.624 589.992 164.284C590.604 164.932 590.91 165.85 590.91 167.038C590.91 167.89 590.724 168.586 590.352 169.126C589.98 169.666 589.47 170.032 588.822 170.224C589.482 170.428 589.992 170.842 590.352 171.466C590.724 172.09 590.91 172.894 590.91 173.878C590.91 175.234 590.616 176.29 590.028 177.046C589.452 177.79 588.546 178.162 587.31 178.162ZM597.995 174.094H593.765V172.078L597.563 163.42H599.831V172.384H601.469V174.094H599.831V178H597.995V174.094ZM597.995 172.384V165.76L595.619 172.384H597.995Z" fill="#2D0901"/>
<path d="M294.551 172.78H293.777V171.34H294.767L295.019 169.594H293.813V168.136H295.217L295.901 163.42H297.827L297.143 168.136H298.763L299.447 163.42H301.355L300.671 168.136H301.409V169.594H300.473L300.203 171.34H301.355V172.78H300.005L299.249 178H297.323L298.079 172.78H296.477L295.739 178H293.813L294.551 172.78ZM298.295 171.34L298.547 169.594H296.945L296.675 171.34H298.295ZM304.529 163.42H310.163V164.878H306.563V169.738H309.353V171.178H306.563V178H304.529V163.42ZM313.001 163.42H318.635V164.878H315.035V169.738H317.825V171.178H315.035V178H313.001V163.42ZM324.712 178.144C323.452 178.144 322.546 177.79 321.994 177.082C321.454 176.362 321.184 175.306 321.184 173.914H323.11C323.11 174.73 323.218 175.384 323.434 175.876C323.662 176.368 324.1 176.614 324.748 176.614C325.24 176.614 325.606 176.47 325.846 176.182C326.086 175.894 326.236 175.516 326.296 175.048C326.368 174.568 326.404 173.932 326.404 173.14C326.404 172.408 326.362 171.826 326.278 171.394C326.206 170.95 326.05 170.614 325.81 170.386C325.582 170.146 325.234 170.026 324.766 170.026C324.394 170.026 324.064 170.14 323.776 170.368C323.5 170.596 323.29 170.884 323.146 171.232H321.508V163.42H327.79V165.346H323.254L323.128 169.378C323.644 168.838 324.346 168.568 325.234 168.568C326.35 168.568 327.142 168.952 327.61 169.72C328.09 170.476 328.33 171.532 328.33 172.888C328.33 174.544 328.06 175.834 327.52 176.758C326.98 177.682 326.044 178.144 324.712 178.144ZM334.838 178.162C333.566 178.162 332.648 177.796 332.084 177.064C331.52 176.332 331.238 175.276 331.238 173.896C331.238 172.972 331.388 172.234 331.688 171.682C332 171.13 332.45 170.674 333.038 170.314C331.958 169.594 331.418 168.508 331.418 167.056C331.418 165.868 331.7 164.944 332.264 164.284C332.828 163.624 333.686 163.294 334.838 163.294C335.978 163.294 336.824 163.624 337.376 164.284C337.94 164.944 338.222 165.868 338.222 167.056C338.222 167.836 338.084 168.49 337.808 169.018C337.532 169.534 337.13 169.966 336.602 170.314C337.19 170.686 337.64 171.148 337.952 171.7C338.264 172.252 338.42 172.984 338.42 173.896C338.42 175.264 338.138 176.32 337.574 177.064C337.01 177.796 336.098 178.162 334.838 178.162ZM334.838 169.432C335.834 169.42 336.332 168.592 336.332 166.948C336.332 166.3 336.212 165.778 335.972 165.382C335.744 164.986 335.366 164.788 334.838 164.788C334.31 164.788 333.92 164.986 333.668 165.382C333.428 165.778 333.308 166.3 333.308 166.948C333.308 167.668 333.422 168.262 333.65 168.73C333.878 169.186 334.274 169.42 334.838 169.432ZM334.838 176.632C335.486 176.632 335.936 176.398 336.188 175.93C336.44 175.45 336.566 174.784 336.566 173.932C336.566 173.152 336.428 172.516 336.152 172.024C335.888 171.532 335.45 171.28 334.838 171.268C334.214 171.28 333.764 171.532 333.488 172.024C333.212 172.516 333.074 173.152 333.074 173.932C333.074 174.784 333.2 175.45 333.452 175.93C333.716 176.398 334.178 176.632 334.838 176.632ZM345.423 178.162C344.223 178.162 343.317 177.772 342.705 176.992C342.105 176.212 341.805 175.168 341.805 173.86V167.578C341.805 166.246 342.099 165.202 342.687 164.446C343.287 163.678 344.199 163.294 345.423 163.294C346.635 163.294 347.535 163.678 348.123 164.446C348.723 165.202 349.023 166.246 349.023 167.578V173.86C349.023 175.18 348.723 176.23 348.123 177.01C347.523 177.778 346.623 178.162 345.423 178.162ZM345.423 176.578C346.527 176.578 347.079 175.678 347.079 173.878V167.56C347.079 166.732 346.959 166.078 346.719 165.598C346.491 165.106 346.059 164.86 345.423 164.86C344.787 164.86 344.349 165.106 344.109 165.598C343.869 166.078 343.749 166.732 343.749 167.56V173.878C343.749 175.678 344.307 176.578 345.423 176.578ZM356.162 178.162C354.962 178.162 354.056 177.772 353.444 176.992C352.844 176.212 352.544 175.168 352.544 173.86V167.578C352.544 166.246 352.838 165.202 353.426 164.446C354.026 163.678 354.938 163.294 356.162 163.294C357.374 163.294 358.274 163.678 358.862 164.446C359.462 165.202 359.762 166.246 359.762 167.578V173.86C359.762 175.18 359.462 176.23 358.862 177.01C358.262 177.778 357.362 178.162 356.162 178.162ZM356.162 176.578C357.266 176.578 357.818 175.678 357.818 173.878V167.56C357.818 166.732 357.698 166.078 357.458 165.598C357.23 165.106 356.798 164.86 356.162 164.86C355.526 164.86 355.088 165.106 354.848 165.598C354.608 166.078 354.488 166.732 354.488 167.56V173.878C354.488 175.678 355.046 176.578 356.162 176.578Z" fill="white"/>
<path d="M52.821 172.78H52.047V171.34H53.037L53.289 169.594H52.083V168.136H53.487L54.171 163.42H56.097L55.413 168.136H57.033L57.717 163.42H59.625L58.941 168.136H59.679V169.594H58.743L58.473 171.34H59.625V172.78H58.275L57.519 178H55.593L56.349 172.78H54.747L54.009 178H52.083L52.821 172.78ZM56.565 171.34L56.817 169.594H55.215L54.945 171.34H56.565ZM62.7989 163.42H66.1469C67.4669 163.42 68.4449 163.72 69.0809 164.32C69.7169 164.908 70.0349 165.826 70.0349 167.074C70.0349 168.934 69.3389 169.96 67.9469 170.152C68.8109 170.356 69.4409 170.764 69.8369 171.376C70.2329 171.976 70.4309 172.798 70.4309 173.842C70.4309 175.15 70.1189 176.17 69.4949 176.902C68.8829 177.634 67.9469 178 66.6869 178H62.7989V163.42ZM66.0389 169.504C66.8789 169.504 67.4609 169.324 67.7849 168.964C68.1089 168.592 68.2709 167.962 68.2709 167.074C68.2709 166.426 68.1689 165.952 67.9649 165.652C67.7729 165.34 67.4789 165.142 67.0829 165.058C66.6869 164.974 66.0989 164.932 65.3189 164.932H64.8329V169.504H66.0389ZM66.2009 176.542C66.8009 176.542 67.2629 176.452 67.5869 176.272C67.9229 176.08 68.1569 175.792 68.2889 175.408C68.4209 175.024 68.4869 174.502 68.4869 173.842C68.4869 172.906 68.2949 172.21 67.9109 171.754C67.5269 171.286 66.9029 171.052 66.0389 171.052H64.8329V176.542H66.2009ZM73.6784 163.42H76.8464C78.4184 163.42 79.5284 163.78 80.1764 164.5C80.8364 165.22 81.1664 166.342 81.1664 167.866V173.23C81.1664 174.838 80.8424 176.038 80.1944 176.83C79.5584 177.61 78.4964 178 77.0084 178H73.6784V163.42ZM76.8644 176.542C77.5724 176.542 78.0824 176.404 78.3944 176.128C78.7184 175.852 78.9164 175.48 78.9884 175.012C79.0724 174.532 79.1144 173.812 79.1144 172.852V168.118C79.1144 167.29 79.0604 166.66 78.9524 166.228C78.8564 165.784 78.6464 165.46 78.3224 165.256C77.9984 165.04 77.4944 164.932 76.8104 164.932H75.7124V176.542H76.8644ZM84.2146 176.632L87.9226 170.854C88.1026 170.566 88.2226 170.386 88.2826 170.314C88.7026 169.642 89.0086 169.084 89.2006 168.64C89.3926 168.196 89.4886 167.662 89.4886 167.038C89.4886 166.342 89.3746 165.808 89.1466 165.436C88.9186 165.064 88.5466 164.878 88.0306 164.878C86.8786 164.878 86.3026 165.772 86.3026 167.56V168.046H84.3766V167.542C84.3766 166.174 84.6586 165.124 85.2226 164.392C85.7866 163.66 86.6926 163.294 87.9406 163.294C89.0926 163.294 89.9626 163.624 90.5506 164.284C91.1386 164.932 91.4326 165.856 91.4326 167.056C91.4326 167.644 91.3606 168.172 91.2166 168.64C91.0846 169.096 90.9226 169.492 90.7306 169.828C90.5386 170.164 90.2386 170.644 89.8306 171.268L86.4826 176.38H91.0906V178H84.2146V176.632ZM98.4623 174.094H94.2323V172.078L98.0303 163.42H100.298V172.384H101.936V174.094H100.298V178H98.4623V174.094ZM98.4623 172.384V165.76L96.0863 172.384H98.4623ZM108.315 178.162C107.115 178.162 106.209 177.772 105.597 176.992C104.997 176.212 104.697 175.168 104.697 173.86V167.578C104.697 166.246 104.991 165.202 105.579 164.446C106.179 163.678 107.091 163.294 108.315 163.294C109.527 163.294 110.427 163.678 111.015 164.446C111.615 165.202 111.915 166.246 111.915 167.578V173.86C111.915 175.18 111.615 176.23 111.015 177.01C110.415 177.778 109.515 178.162 108.315 178.162ZM108.315 176.578C109.419 176.578 109.971 175.678 109.971 173.878V167.56C109.971 166.732 109.851 166.078 109.611 165.598C109.383 165.106 108.951 164.86 108.315 164.86C107.679 164.86 107.241 165.106 107.001 165.598C106.761 166.078 106.641 166.732 106.641 167.56V173.878C106.641 175.678 107.199 176.578 108.315 176.578ZM117.47 165.94C117.446 165.976 117.08 166.06 116.372 166.192C115.676 166.324 115.196 166.414 114.932 166.462V165.004C116.396 164.656 117.398 164.128 117.938 163.42H119.396V178H117.47V165.94Z" fill="white"/>
<path d="M1168.77 171.767C1169.74 170.79 1169.74 169.207 1168.77 168.231L1152.85 152.331C1151.87 151.355 1150.29 151.356 1149.31 152.333C1148.33 153.31 1148.34 154.893 1149.31 155.869L1163.46 170.002L1149.33 184.153C1148.35 185.13 1148.36 186.713 1149.33 187.689C1150.31 188.664 1151.89 188.663 1152.87 187.686L1168.77 171.767ZM897.002 172.668L1167 172.5L1167 167.5L896.998 167.668L897.002 172.668Z" fill="#E14E00"/>
<path d="M1209.39 191.528C1205.36 191.528 1202.5 190.408 1200.8 188.168C1199.14 185.896 1198.3 182.696 1198.3 178.568V164.696C1198.3 160.44 1199.14 157.208 1200.8 155C1202.46 152.792 1205.33 151.688 1209.39 151.688C1213.2 151.688 1215.9 152.648 1217.5 154.568C1219.1 156.488 1219.9 159.256 1219.9 162.872V166.136H1213.09V162.776C1213.09 161.4 1213.02 160.328 1212.9 159.56C1212.77 158.76 1212.43 158.12 1211.89 157.64C1211.38 157.128 1210.56 156.872 1209.44 156.872C1208.29 156.872 1207.42 157.144 1206.85 157.688C1206.27 158.2 1205.89 158.904 1205.7 159.8C1205.54 160.664 1205.46 161.8 1205.46 163.208V180.056C1205.46 182.264 1205.74 183.864 1206.32 184.856C1206.9 185.816 1207.94 186.296 1209.44 186.296C1210.53 186.296 1211.33 186.04 1211.84 185.528C1212.38 185.016 1212.72 184.344 1212.85 183.512C1213.01 182.648 1213.09 181.512 1213.09 180.104V176.6H1219.9V179.72C1219.9 183.464 1219.12 186.376 1217.55 188.456C1215.98 190.504 1213.26 191.528 1209.39 191.528ZM1239.3 191.528C1235.27 191.528 1232.39 190.456 1230.66 188.312C1228.93 186.136 1228.07 182.968 1228.07 178.808V164.216C1228.07 160.088 1228.93 156.968 1230.66 154.856C1232.39 152.744 1235.27 151.688 1239.3 151.688C1243.3 151.688 1246.16 152.744 1247.89 154.856C1249.62 156.968 1250.48 160.088 1250.48 164.216V178.808C1250.48 182.936 1249.6 186.088 1247.84 188.264C1246.11 190.44 1243.27 191.528 1239.3 191.528ZM1239.3 186.296C1240.87 186.296 1241.92 185.8 1242.47 184.808C1243.01 183.816 1243.28 182.376 1243.28 180.488V162.584C1243.28 160.696 1243.01 159.272 1242.47 158.312C1241.95 157.352 1240.9 156.872 1239.3 156.872C1237.7 156.872 1236.63 157.368 1236.08 158.36C1235.54 159.32 1235.27 160.728 1235.27 162.584V180.488C1235.27 182.376 1235.54 183.816 1236.08 184.808C1236.63 185.8 1237.7 186.296 1239.3 186.296ZM1259.58 152.12H1266.63V186.152H1276.09V191H1259.58V152.12ZM1293.76 191.528C1289.73 191.528 1286.85 190.456 1285.12 188.312C1283.39 186.136 1282.53 182.968 1282.53 178.808V164.216C1282.53 160.088 1283.39 156.968 1285.12 154.856C1286.85 152.744 1289.73 151.688 1293.76 151.688C1297.76 151.688 1300.62 152.744 1302.35 154.856C1304.08 156.968 1304.94 160.088 1304.94 164.216V178.808C1304.94 182.936 1304.06 186.088 1302.3 188.264C1300.58 190.44 1297.73 191.528 1293.76 191.528ZM1293.76 186.296C1295.33 186.296 1296.38 185.8 1296.93 184.808C1297.47 183.816 1297.74 182.376 1297.74 180.488V162.584C1297.74 160.696 1297.47 159.272 1296.93 158.312C1296.42 157.352 1295.36 156.872 1293.76 156.872C1292.16 156.872 1291.09 157.368 1290.54 158.36C1290 159.32 1289.73 160.728 1289.73 162.584V180.488C1289.73 182.376 1290 183.816 1290.54 184.808C1291.09 185.8 1292.16 186.296 1293.76 186.296ZM1314.04 152.12H1323.4C1327.49 152.12 1330.55 152.904 1332.57 154.472C1334.58 156.008 1335.59 158.664 1335.59 162.44C1335.59 164.904 1335.22 166.92 1334.49 168.488C1333.78 170.024 1332.55 171.144 1330.79 171.848L1336.21 191H1329.11L1324.45 173.192H1321.09V191H1314.04V152.12ZM1323.35 168.776C1325.37 168.776 1326.79 168.312 1327.62 167.384C1328.49 166.456 1328.92 164.936 1328.92 162.824C1328.92 160.776 1328.53 159.288 1327.77 158.36C1327.03 157.432 1325.69 156.968 1323.73 156.968H1321.09V168.776H1323.35ZM1360.3 152.12H1371.72C1378.34 152.12 1381.66 155.8 1381.66 163.16C1381.66 170.2 1378.18 173.72 1371.24 173.72H1367.35V191H1360.3V152.12ZM1370.09 168.728C1372.01 168.728 1373.3 168.328 1373.98 167.528C1374.65 166.696 1374.98 165.224 1374.98 163.112C1374.98 161.576 1374.87 160.408 1374.65 159.608C1374.42 158.776 1373.96 158.152 1373.26 157.736C1372.58 157.32 1371.53 157.112 1370.09 157.112H1367.35V168.728H1370.09ZM1393.24 152.12H1400.83L1408.6 191H1402.03L1400.49 182.024H1393.72L1392.14 191H1385.47L1393.24 152.12ZM1399.72 177.512L1397.08 161.192L1394.44 177.512H1399.72ZM1416.35 152.12H1423.41V186.152H1432.86V191H1416.35V152.12ZM1440.39 152.12H1456.71V157.112H1447.45V168.296H1454.75V173.24H1447.45V186.152H1456.81V191H1440.39V152.12ZM1468.65 157.352H1462.46V152.12H1481.81V157.352H1475.76V191H1468.65V157.352ZM1493.07 157.352H1486.88V152.12H1506.22V157.352H1500.18V191H1493.07V157.352ZM1513.6 152.12H1529.92V157.112H1520.66V168.296H1527.95V173.24H1520.66V186.152H1530.02V191H1513.6V152.12Z" fill="#E14E00"/>
</g>
<defs>
<linearGradient id="paint0_linear_12175" x1="1149.58" y1="826.411" x2="973.546" y2="1323" gradientUnits="userSpaceOnUse">
<stop stop-color="#FFCD34"/>
<stop offset="0.40625" stop-color="#FF5800"/>
<stop offset="0.921875" stop-color="#BD2401"/>
</linearGradient>
<linearGradient id="paint1_linear_12175" x1="1208.35" y1="852.942" x2="1184.33" y2="878.513" gradientUnits="userSpaceOnUse">
<stop stop-color="#FFCD34"/>
<stop offset="0.625" stop-color="#FF5800"/>
</linearGradient>
<linearGradient id="paint2_linear_12175" x1="645.375" y1="903.268" x2="520.54" y2="1255.43" gradientUnits="userSpaceOnUse">
<stop stop-color="#FFCD34"/>
<stop offset="0.666667" stop-color="#FF5800"/>
<stop offset="1" stop-color="#BD2401"/>
</linearGradient>
<linearGradient id="paint3_linear_12175" x1="620.937" y1="1230.49" x2="620.937" y2="1296.97" gradientUnits="userSpaceOnUse">
<stop stop-color="#FF5800"/>
<stop offset="1" stop-color="#BD2401"/>
</linearGradient>
<linearGradient id="paint4_linear_12175" x1="954.579" y1="780.332" x2="935.043" y2="835.445" gradientUnits="userSpaceOnUse">
<stop stop-color="#FFCD34"/>
<stop offset="1" stop-color="#FF5800"/>
</linearGradient>
<linearGradient id="paint5_linear_12175" x1="1411.43" y1="1050.89" x2="1346.06" y2="1050.89" gradientUnits="userSpaceOnUse">
<stop stop-color="#FFCD34"/>
<stop offset="1" stop-color="#FF5800"/>
</linearGradient>
<clipPath id="clip0_12175">
<rect width="3194" height="1762" fill="white"/>
</clipPath>
</defs>
</svg>
