<svg width="1200" height="963" viewBox="0 0 1200 963" fill="none" xmlns="http://www.w3.org/2000/svg">
<path d="M369.386 505.058C372.635 500.892 380.977 492.86 388.352 494.056C395.727 495.252 415.339 468.763 424.222 455.368C432.472 442.931 450.619 411.904 457.214 387.3C465.457 356.544 456.171 302.736 463.427 282.265C470.683 261.795 465.572 238.713 489.162 234.668C512.753 230.622 569.331 228.522 597.287 217.161C619.652 208.073 621.688 207.495 619.911 208.342L602.728 236.815C619.319 235.015 653.973 231.76 659.865 233.14C665.757 234.52 670.99 240.924 672.87 243.954C679.568 248.396 694.927 256.736 702.789 254.559C712.616 251.839 767.532 211.926 782.591 211.947C797.65 211.967 810.247 216.433 812.559 219.911C814.871 223.39 799.154 230.226 787.094 239.245C777.447 246.46 773.732 251.938 773.081 253.775C798.439 244.743 851.674 227.573 861.752 231.145C871.83 234.718 877.246 240.773 878.694 243.355L825.832 272.474C867.541 278.987 957.709 295.47 984.713 309.296C1018.47 326.579 1089.03 367.544 1104.22 374.7C1119.4 381.857 1168.58 408.15 1176.22 409.087C1182.34 409.837 1169.02 421.897 1161.6 427.833L1114.9 424.572C1096.12 430.029 1059.91 437.307 1051.49 438.432C1034.98 440.641 1025.54 441.64 1017.67 438.849C1009.79 436.059 979.346 439.446 972.718 440.641C966.09 441.837 913.777 441.905 909.053 440.23C905.274 438.891 892.157 439.558 886.071 440.06C891.938 441.844 904.967 446.758 910.149 452.14C915.331 457.522 921.69 461.253 924.221 462.446C903.086 467.066 859.601 476.23 854.745 475.927C848.676 475.548 820.462 472.637 818.787 477.361C817.112 482.085 797.996 501.01 772.144 498.936C746.291 496.862 675.262 494.726 663.023 499.25C650.784 503.774 647.106 516.651 637.05 517.517C626.994 518.384 609.573 517.526 609.523 520.167C609.473 522.808 612.343 524.712 610.39 530.223C608.436 535.734 580.022 543.387 579.234 543.108C578.447 542.829 605.366 544.395 601.18 556.205C597.831 565.653 579.558 577.196 570.841 581.787C573.372 582.98 577.877 586.94 575.644 593.238C573.412 599.537 548.662 604.353 536.566 605.974C540.732 609.223 546.92 617.266 538.349 623.445C529.778 629.623 522.067 636.875 519.283 639.729L458.967 629.87C441.231 622.401 402.858 607.144 391.257 605.868C376.757 604.273 352.446 600.01 342.931 604.69C333.659 609.25 318.036 579.913 328.95 561.625C337.681 546.995 359.545 517.818 369.386 505.058Z" stroke="#BD2401" stroke-width="3"/>
<path d="M865.717 263.787C866.497 264.519 870.034 264.97 877.95 260.915C887.845 255.847 890.353 242.245 901.289 250.124C910.038 256.427 916.365 263.487 918.434 266.229C909.615 268.85 891.276 273.433 888.471 270.798C885.665 268.162 872.133 265.026 865.717 263.787Z" stroke="#BD2401" stroke-width="3"/>
<path d="M335.783 529.361C346.089 515.289 364.861 492.047 373.595 486.576C350.547 466.589 323.777 453.022 278.916 436.36C264.131 430.868 278.916 436.36 253.281 428.166C248.404 425.255 229.25 422.766 216.275 422.766C195.602 422.766 172.22 426.936 166.503 428.166C155.227 430.592 129.286 435.652 113.432 440.372C116.665 437.087 124.818 422.252 131.573 389.196C140.016 347.876 136.579 320.07 133.879 295.184C131.719 275.275 146.934 247.522 154.811 236.135C146.273 245.22 126.511 268.466 115.771 288.765C102.345 314.138 124.499 344.148 110.315 381.66C96.1316 419.173 78.9485 447.646 73.5959 465.246C68.2432 482.846 63.1491 514.718 67.9818 538.588C72.8144 562.457 73.3726 560.883 69.2655 582.47C65.9799 599.739 82.1742 607.725 90.682 609.559L96.0052 579.541C103.184 581.79 118.613 582.769 122.895 568.688C128.247 551.088 143.901 537.114 174.598 520.521C205.295 503.929 245.522 630.909 263.723 645.238C284.568 661.648 421.063 640.481 450.387 645.263C459.127 634.772 378.064 615.391 367.827 615.391C353.529 615.391 340.453 621.246 329.66 619.192C318.866 617.139 314.249 597.635 313.532 579.655C312.816 561.676 324.925 544.188 335.783 529.361Z" stroke="#BD2401" stroke-width="3"/>
<path d="M90.1552 509.284C90.1643 501.597 98.0191 494.841 98.0191 488.498C98.0191 485.294 95.5672 479.09 96.7375 476.419C99.0619 471.112 108.717 468.248 114.659 465.972C113.384 467.574 110.837 472.477 108.33 476.419C105.597 480.718 103.909 486.906 104.269 490.269C105.773 499.083 117.245 510.929 105.372 518.614C101.975 520.812 90.1462 516.971 90.1552 509.284Z" stroke="#BD2401" stroke-width="3"/>
<path d="M238.812 630.132C236.89 642.095 244.768 666.918 290.399 665.38C336.029 663.842 384.607 658.757 403.192 656.407C364.099 673.497 278.735 704.857 250.024 693.578C221.312 682.299 230.797 646.153 239.129 629.491" stroke="#BD2401" stroke-width="3"/>
<path d="M635.08 202.272C629.073 204.967 619.912 221.308 616.083 229.142C620.235 228.316 629.823 226.602 634.962 226.356C640.101 226.11 657.487 198.439 665.538 184.634C664.281 186.199 660.936 189.896 657.607 192.163C653.445 194.996 642.589 198.902 635.08 202.272Z" stroke="#BD2401" stroke-width="3"/>
<path d="M1047.12 450.879C1055.54 451.215 1100.8 440.684 1122.38 435.377C1112.16 440.653 1080.13 454.914 1059.42 460.733C1038.72 466.551 1025.53 456.706 1021.52 451.056C1024.4 451.608 1038.71 450.542 1047.12 450.879Z" stroke="#BD2401" stroke-width="3"/>
<path d="M687.773 543.965H706.013C712.605 543.965 717.245 545.725 719.933 549.245C722.685 552.765 724.061 557.693 724.061 564.029C724.061 569.981 722.653 574.909 719.837 578.813C717.085 582.653 712.509 584.573 706.109 584.573H692.957V621.725H687.773V543.965ZM704.957 580.541C709.757 580.541 713.245 579.293 715.421 576.797C717.597 574.237 718.685 569.981 718.685 564.029C718.685 559.869 718.237 556.637 717.341 554.333C716.445 552.029 715.005 550.397 713.021 549.437C711.101 548.477 708.445 547.997 705.053 547.997H692.957V580.541H704.957ZM740.319 543.965H745.407V572.093C747.263 569.981 749.311 568.349 751.551 567.197C753.855 565.981 756.223 565.373 758.655 565.373C761.279 565.373 763.391 566.365 764.991 568.349C766.591 570.269 767.391 573.309 767.391 577.469V621.725H762.207V578.045C762.207 574.781 761.727 572.509 760.767 571.229C759.807 569.949 758.367 569.309 756.447 569.309C754.655 569.309 752.799 569.853 750.879 570.941C748.959 572.029 747.135 573.533 745.407 575.453V621.725H740.319V543.965ZM798.457 622.589C793.145 622.589 789.497 620.925 787.513 617.597C785.529 614.205 784.537 608.829 784.537 601.469V586.493C784.537 579.197 785.529 573.853 787.513 570.461C789.497 567.069 793.145 565.373 798.457 565.373C803.769 565.373 807.417 567.069 809.401 570.461C811.449 573.789 812.473 579.133 812.473 586.493V601.469C812.473 608.829 811.449 614.205 809.401 617.597C807.417 620.925 803.769 622.589 798.457 622.589ZM798.457 618.749C801.017 618.749 802.937 618.109 804.217 616.829C805.561 615.485 806.425 613.629 806.809 611.261C807.193 608.893 807.385 605.693 807.385 601.661V586.301C807.385 582.269 807.193 579.069 806.809 576.701C806.425 574.333 805.561 572.509 804.217 571.229C802.937 569.885 801.017 569.213 798.457 569.213C795.897 569.213 793.977 569.885 792.697 571.229C791.417 572.509 790.585 574.333 790.201 576.701C789.817 579.005 789.625 582.205 789.625 586.301V601.661C789.625 605.757 789.817 608.989 790.201 611.357C790.585 613.661 791.417 615.485 792.697 616.829C793.977 618.109 795.897 618.749 798.457 618.749ZM843.079 622.589C839.943 622.589 837.351 621.981 835.303 620.765C833.255 619.549 831.687 617.373 830.599 614.237C829.511 611.101 828.967 606.749 828.967 601.181V586.397C828.967 580.829 829.511 576.509 830.599 573.437C831.751 570.365 833.351 568.253 835.399 567.101C837.447 565.949 840.039 565.373 843.175 565.373C846.631 565.373 849.351 566.109 851.335 567.581C853.319 569.053 854.727 571.389 855.559 574.589C856.391 577.725 856.807 582.013 856.807 587.453V592.733H834.055V601.565C834.055 605.981 834.343 609.437 834.919 611.933C835.559 614.429 836.519 616.189 837.799 617.213C839.079 618.237 840.839 618.749 843.079 618.749C845.703 618.749 847.815 618.013 849.415 616.541C851.015 615.005 851.815 611.869 851.815 607.133V603.005H856.807V606.653C856.807 611.773 855.751 615.709 853.639 618.461C851.591 621.213 848.071 622.589 843.079 622.589ZM851.815 589.661V585.341C851.815 581.565 851.623 578.557 851.239 576.317C850.855 574.077 850.023 572.349 848.743 571.133C847.527 569.853 845.671 569.213 843.175 569.213C840.999 569.213 839.239 569.661 837.895 570.557C836.615 571.453 835.655 573.085 835.015 575.453C834.375 577.821 834.055 581.149 834.055 585.437V589.661H851.815ZM874.078 566.237H879.166V572.189C880.958 570.077 882.974 568.413 885.214 567.197C887.454 565.981 889.822 565.373 892.318 565.373C894.942 565.373 897.054 566.365 898.654 568.349C900.254 570.269 901.054 573.309 901.054 577.469V621.725H895.966V578.045C895.966 574.845 895.454 572.605 894.43 571.325C893.47 569.981 892.03 569.309 890.11 569.309C888.318 569.309 886.462 569.853 884.542 570.941C882.686 572.029 880.894 573.533 879.166 575.453V621.725H874.078V566.237ZM920.026 550.109H925.21V558.941H920.026V550.109ZM920.026 566.237H925.21V621.725H920.026V566.237ZM955.109 592.829L942.437 566.237H947.621L957.989 588.221L968.261 566.237H973.541L960.389 593.309L973.733 621.725H968.933L957.605 598.109L946.565 621.725H941.573L955.109 592.829Z" fill="#BD2401"/>
</svg>
